<svg width="430" height="430" viewBox="0 0 430 430" fill="none" xmlns="http://www.w3.org/2000/svg">
<path d="M206.1 250.242C205.621 257.762 203.98 264.529 201.178 270.545C198.443 276.561 194.752 281.688 190.104 285.926C185.455 290.164 179.918 293.445 173.492 295.77C167.066 298.025 159.957 299.153 152.164 299.153C146.012 299.153 140.304 298.367 135.04 296.795C129.845 295.154 125.162 292.83 120.992 289.822C117.164 287.02 113.746 283.636 110.738 279.671C107.799 275.706 105.304 271.331 103.253 266.546C101.271 261.761 99.7324 256.497 98.6387 250.755C97.6133 245.013 97.1006 238.929 97.1006 232.503V212.405C97.1006 206.39 97.5791 200.682 98.5361 195.281C99.4932 189.812 100.929 184.754 102.843 180.105C105.03 174.432 107.901 169.373 111.456 164.93C115.011 160.486 119.044 156.727 123.556 153.65C127.589 151.053 131.998 149.07 136.783 147.703C141.637 146.268 146.832 145.55 152.369 145.55C160.572 145.55 167.853 146.712 174.21 149.036C180.636 151.36 186.104 154.676 190.616 158.982C195.128 163.289 198.683 168.553 201.28 174.773C203.878 180.994 205.519 188.001 206.202 195.794H177.491C177.218 191.351 176.534 187.454 175.44 184.104C174.415 180.755 172.911 177.952 170.929 175.696C168.878 173.509 166.314 171.868 163.238 170.774C160.23 169.612 156.607 169.031 152.369 169.031C150.113 169.031 147.994 169.271 146.012 169.749C144.098 170.228 142.32 170.945 140.68 171.902C137.877 173.543 135.484 175.901 133.502 178.978C131.588 181.985 130.05 185.506 128.888 189.539C127.999 192.684 127.35 196.17 126.939 199.998C126.529 203.758 126.324 207.825 126.324 212.2V232.503C126.324 238.45 126.632 243.782 127.247 248.499C127.931 253.147 128.956 257.215 130.323 260.701C131.28 263.094 132.408 265.213 133.707 267.059C135.074 268.904 136.612 270.442 138.321 271.673C140.167 273.04 142.218 274.065 144.474 274.749C146.798 275.364 149.361 275.672 152.164 275.672C155.924 275.672 159.308 275.193 162.315 274.236C165.323 273.279 167.887 271.775 170.006 269.725C172.125 267.674 173.8 265.042 175.03 261.829C176.261 258.616 177.013 254.754 177.286 250.242H206.1Z" fill="white"/>
<path d="M328.019 147.703L328.121 246.653C328.121 254.993 326.959 262.41 324.635 268.904C322.379 275.398 319.098 280.867 314.791 285.311C310.416 289.822 305.084 293.24 298.795 295.564C292.574 297.889 285.465 299.051 277.467 299.051C269.947 299.051 263.146 297.889 257.062 295.564C251.046 293.24 245.885 289.856 241.578 285.413C237.271 280.97 233.922 275.501 231.529 269.007C229.205 262.444 228.043 254.993 228.043 246.653L228.146 147.703H256.959L257.062 246.653C257.13 251.644 257.608 256.019 258.497 259.778C259.454 263.538 260.855 266.648 262.701 269.109C264.41 271.365 266.495 273.074 268.956 274.236C271.417 275.33 274.254 275.877 277.467 275.877C280.953 275.877 284.029 275.296 286.695 274.134C289.43 272.903 291.686 271.092 293.463 268.699C295.377 266.238 296.812 263.162 297.77 259.471C298.727 255.779 299.239 251.507 299.308 246.653L299.41 147.703H328.019Z" fill="white"/>
</svg>
